# xmcd CD database file
#
# Track frame offsets:
#	150
#	12070
#	25685
#	39749
#	54013
#	69043
#	80320
#	91979
#	104356
#	118134
#	129474
#	142156
#
# Disc length: 2073 seconds
#
# Revision: 0
# Processed by: cddbd v1.4PL0 Copyright (c) Steve Scherf et al.
# Submitted via: CDex 1.50
#
DISCID=9008170c
DTITLE=Various Artist - Crossroad Blues - Volume 1: Birth Of The Blues
DYEAR=2000
DGENRE=Blues
TTITLE0=Cross Road Blues/Robert Johnson
TTITLE1=Sitting On Top Of The World/Mississippi Sheiks
TTITLE2=When The Levee Breaks/Memphis Minnie
TTITLE3=Highway 49/Big Joe Williams
TTITLE4=32-20 Blues/Muddy Waters
TTITLE5=Rock Island Line/Leadbelly
TTITLE6=Hellhound On My Trail/Robert Johnson
TTITLE7=I Feel So Good/Big Bill Broonzy
TTITLE8=Roll and Tumble Blues/Hamburn Willie Newburn
TTITLE9=Got The Bottle Up And Go/Sonny Boy Williamson
TTITLE10=Got The Blues Can't Be Satisfied/Mississippi John Hurt
TTITLE11=Good Morning Schoolgirl/Sonny Boy Williamson
EXTD=YEAR: 2000
EXTT0=
EXTT1=
EXTT2=
EXTT3=
EXTT4=
EXTT5=
EXTT6=
EXTT7=
EXTT8=
EXTT9=
EXTT10=
EXTT11=
PLAYORDER=
